<?xml version="1.0" standalone="no"?>
<!DOCTYPE svg PUBLIC "-//W3C//DTD SVG 20010904//EN"
 "http://www.w3.org/TR/2001/REC-SVG-20010904/DTD/svg10.dtd">
<svg version="1.0" xmlns="http://www.w3.org/2000/svg"
 width="375.000000pt" height="375.000000pt" viewBox="0 0 375.000000 375.000000"
 preserveAspectRatio="xMidYMid meet">
<metadata>
Created by potrace 1.14, written by Peter Selinger 2001-2017
</metadata>
<g transform="translate(0.000000,375.000000) scale(0.100000,-0.100000)"
fill="#000000" stroke="none">
<path d="M925 3235 c-199 -50 -352 -199 -411 -402 -18 -63 -23 -234 -10 -333
19 -134 89 -286 195 -425 64 -84 369 -454 404 -490 36 -38 147 -196 178 -255
81 -151 86 -351 12 -448 -72 -95 -264 -106 -352 -20 -47 46 -69 95 -88 188 -3
16 -13 163 -18 265 -1 33 -3 63 -4 66 0 4 -72 6 -158 5 l-158 -1 -17 -100
c-38 -223 -15 -411 66 -550 57 -96 196 -187 334 -218 80 -18 305 -19 391 -1
170 36 325 152 395 299 75 155 85 370 26 554 -46 145 -172 340 -385 596 -259
310 -374 460 -404 527 -64 143 -59 299 12 377 58 63 193 84 280 42 99 -48 152
-189 161 -426 2 -60 5 -113 5 -117 1 -4 70 -6 154 -5 l152 2 11 45 c24 96 33
304 18 410 -28 198 -187 360 -409 416 -47 12 -332 11 -380 -1z"/>
<path d="M2459 3234 c-167 -32 -314 -148 -388 -309 -37 -78 -59 -206 -55 -315
5 -140 27 -228 91 -357 29 -58 177 -273 202 -293 4 -3 49 -57 101 -120 52 -63
110 -133 130 -156 19 -22 49 -58 65 -79 17 -21 42 -52 56 -69 43 -50 141 -198
160 -241 25 -56 30 -85 36 -208 6 -116 -1 -146 -45 -206 -34 -45 -97 -72 -174
-72 -204 -2 -263 94 -284 460 -3 58 -8 109 -10 112 -2 3 -71 6 -153 6 l-150 0
-16 -71 c-21 -91 -26 -321 -10 -401 33 -158 140 -293 286 -359 96 -44 167 -55
338 -52 139 2 165 6 235 30 43 15 97 38 120 51 102 61 186 166 237 299 28 73
32 93 34 204 6 274 -58 422 -335 772 -41 52 -77 97 -80 100 -3 3 -44 52 -90
110 -47 57 -93 114 -102 125 -148 175 -230 296 -243 360 -14 69 -14 194 0 242
25 85 98 133 202 133 117 0 174 -37 224 -145 32 -70 37 -104 45 -280 4 -71 7
-131 8 -132 2 -2 73 -5 159 -8 l156 -5 10 52 c73 364 5 607 -208 748 -43 29
-123 63 -178 76 -53 12 -307 11 -374 -2z"/>
</g>
</svg>
